<?xml version="1.0" standalone="no"?>
<!DOCTYPE svg PUBLIC "-//W3C//DTD SVG 20010904//EN"
 "http://www.w3.org/TR/2001/REC-SVG-20010904/DTD/svg10.dtd">
<svg version="1.0" xmlns="http://www.w3.org/2000/svg"
 width="513.000000pt" height="86.000000pt" viewBox="0 0 513.000000 86.000000"
 preserveAspectRatio="xMidYMid meet">

<g transform="translate(0.000000,86.000000) scale(0.100000,-0.100000)"
fill="#000000" stroke="none">
<path d="M241 804 c-172 -86 -276 -417 -189 -605 49 -107 142 -169 263 -177
289 -18 432 281 286 600 -80 176 -225 249 -360 182z m172 -48 c35 -15 107 -88
130 -132 42 -83 59 -165 55 -258 -7 -172 -87 -271 -229 -283 -78 -8 -140 11
-193 58 -112 99 -127 289 -37 467 68 134 172 191 274 148z"/>
<path d="M100 365 c0 -19 5 -35 10 -35 6 0 10 16 10 35 0 19 -4 35 -10 35 -5
0 -10 -16 -10 -35z"/>
<path d="M160 365 c0 -19 5 -35 10 -35 6 0 10 16 10 35 0 19 -4 35 -10 35 -5
0 -10 -16 -10 -35z"/>
<path d="M210 365 c0 -24 5 -35 15 -35 10 0 15 11 15 35 0 24 -5 35 -15 35
-10 0 -15 -11 -15 -35z"/>
<path d="M270 365 c0 -24 5 -35 15 -35 10 0 15 11 15 35 0 24 -5 35 -15 35
-10 0 -15 -11 -15 -35z"/>
<path d="M330 365 c0 -19 5 -35 10 -35 6 0 10 16 10 35 0 19 -4 35 -10 35 -5
0 -10 -16 -10 -35z"/>
<path d="M390 365 c0 -19 5 -35 10 -35 6 0 10 16 10 35 0 19 -4 35 -10 35 -5
0 -10 -16 -10 -35z"/>
<path d="M440 365 c0 -24 5 -35 15 -35 10 0 15 11 15 35 0 24 -5 35 -15 35
-10 0 -15 -11 -15 -35z"/>
<path d="M500 365 c0 -24 5 -35 15 -35 10 0 15 11 15 35 0 24 -5 35 -15 35
-10 0 -15 -11 -15 -35z"/>
<path d="M560 365 c0 -24 5 -35 15 -35 10 0 15 11 15 35 0 24 -5 35 -15 35
-10 0 -15 -11 -15 -35z"/>
<path d="M272 279 c-16 -25 -11 -32 16 -27 18 3 19 6 9 25 l-12 23 -13 -21z"/>
<path d="M2730 613 l0 -106 -22 21 c-84 78 -246 38 -287 -71 -16 -40 -13 -139
4 -179 16 -41 74 -95 111 -104 46 -12 129 1 162 25 l32 22 0 -25 c0 -24 3 -26
45 -26 l45 0 0 275 0 275 -45 0 -45 0 0 -107z m-65 -135 c31 -14 65 -75 65
-115 0 -40 -34 -91 -75 -110 -29 -14 -40 -15 -75 -4 -52 15 -80 58 -80 123 0
39 5 52 34 82 36 39 80 47 131 24z"/>
<path d="M4750 445 l0 -275 45 0 45 0 0 58 c0 51 3 62 29 86 l30 29 56 -87 56
-86 50 0 c27 0 49 3 49 7 0 3 -31 55 -70 114 -38 60 -70 114 -70 120 0 6 29
41 65 78 36 37 65 71 65 74 0 4 -21 7 -47 7 -46 0 -50 -2 -130 -82 l-83 -83 0
158 0 157 -45 0 -45 0 0 -275z"/>
<path d="M950 430 l0 -260 45 0 45 0 0 105 0 105 135 0 135 0 0 -105 0 -105
45 0 45 0 0 260 0 260 -45 0 -45 0 0 -110 0 -110 -135 0 -135 0 0 110 0 110
-45 0 -45 0 0 -260z"/>
<path d="M3456 670 c-58 -23 -109 -69 -139 -125 -30 -56 -30 -173 0 -231 27
-50 75 -98 122 -120 83 -40 223 -24 291 33 l30 25 -21 29 c-23 32 -40 36 -59
14 -7 -8 -37 -22 -66 -31 -70 -20 -124 -6 -175 45 -67 67 -72 160 -12 232 28
33 94 68 128 69 37 0 94 -21 124 -45 l29 -25 27 36 c26 34 26 36 9 50 -79 62
-199 80 -288 44z"/>
<path d="M1610 561 c-40 -13 -90 -41 -90 -50 0 -5 8 -19 18 -30 16 -21 19 -21
54 -7 57 24 120 21 146 -7 42 -44 31 -57 -50 -57 -138 0 -188 -32 -188 -119 0
-53 18 -84 60 -106 42 -22 128 -19 168 5 32 20 32 20 32 0 0 -17 7 -20 45 -20
l45 0 0 143 c0 156 -10 192 -61 230 -30 21 -136 32 -179 18z m150 -240 c0 -35
-41 -72 -87 -78 -72 -10 -119 40 -77 81 11 12 36 16 90 16 67 0 74 -2 74 -19z"/>
<path d="M1960 371 l0 -201 45 0 45 0 0 116 c0 65 5 125 11 137 31 61 116 78
160 31 22 -24 24 -34 28 -155 l3 -130 42 3 41 3 3 90 c7 194 -16 265 -94 293
-53 19 -124 9 -163 -24 l-30 -25 -3 28 c-3 25 -7 28 -45 31 l-43 3 0 -200z"/>
<path d="M2880 561 c0 -6 34 -90 75 -188 41 -98 75 -187 75 -199 0 -41 -76
-85 -95 -54 -11 17 -20 11 -40 -26 -19 -36 -19 -36 0 -47 57 -34 143 -22 178
25 10 14 61 130 113 257 99 246 99 246 34 239 -32 -3 -33 -5 -82 -140 -28 -76
-54 -136 -57 -133 -4 2 -31 65 -61 139 l-53 136 -44 0 c-23 0 -43 -4 -43 -9z"/>
<path d="M3916 555 c-83 -30 -134 -114 -123 -206 8 -62 30 -102 80 -143 36
-29 44 -31 121 -31 74 0 87 3 125 28 73 48 103 162 66 249 -39 94 -162 141
-269 103z m134 -80 c75 -39 80 -159 10 -212 -47 -35 -126 -16 -160 39 -64 106
42 229 150 173z"/>
<path d="M4375 555 c-157 -55 -168 -293 -18 -366 59 -29 166 -23 216 11 102
70 116 227 27 311 -58 55 -145 72 -225 44z m134 -80 c32 -16 61 -69 61 -112 0
-68 -74 -130 -139 -117 -47 10 -91 66 -91 115 0 99 86 157 169 114z"/>
</g>
</svg>
